<?xml version="1.0" encoding="UTF-8" standalone="no"?>
<svg
        version="1.1"
        xmlns="http://www.w3.org/2000/svg"
        x="0px"
        y="0px"
        width="927"
        height="141"
        viewBox="0 0 927 141"
        enable-background="new 0 0 927 178"
>

    <g
            id="g266"
            transform="matrix(1.115696,0,0,1.115696,-51.031937,-28.071911)">
        <path
                fill="#6b7280"
                d="m 88.044391,128.7608 q -12.086969,0 -21.706598,-5.10624 -9.60964,-5.09627 -15.103716,-14.20173 Q 45.74,100.34737 45.74,88.828415 v 0 q 0,-11.518957 5.494077,-20.624417 5.494076,-9.105461 15.103716,-14.201726 9.619629,-5.106239 21.706598,-5.106239 v 0 q 10.548627,0 19.009509,3.729948 8.46087,3.729948 14.06483,10.751026 v 0 L 107.27366,75.883302 Q 99.801715,66.887546 89.143206,66.887546 v 0 q -6.263247,0 -11.147981,2.742608 -4.894723,2.742609 -7.581826,7.72917 -2.697092,4.996534 -2.697092,11.469091 v 0 q 0,6.472556 2.697092,11.469095 2.687103,4.98656 7.581826,7.72916 4.884734,2.74261 11.147981,2.74261 v 0 q 10.658509,0 18.130454,-8.99575 v 0 l 13.84507,12.50629 q -5.60396,7.02108 -14.06483,10.75103 -8.460882,3.72995 -19.009509,3.72995 z m 64.280699,-18.32063 h 40.21664 v 16.78477 H 130.78831 V 50.431894 h 60.32496 v 16.784765 h -38.78818 v 12.945112 h 34.17316 v 16.236243 h -34.17316 z m 107.6839,-60.008276 h 21.53678 l -32.96446,76.793046 h -21.4269 L 194.29984,50.431894 h 23.51464 l 20.8775,50.025186 z m 26.04193,76.793046 V 50.431894 h 21.75654 v 76.793046 z"
                id="path78"
                style="stroke-width:0.998117"/>
        <g
                id="g90"
                transform="matrix(0.99892304,0,0,0.99731222,0.04925992,0.06762694)">
            <path
                    fill="#6b7280"
                    d="m 334.931,73.371 c -0.181,-0.641 -0.267,-1.301 -0.327,-1.85 l 12.602,12.581 C 340.397,81.64 336.158,81.975 334.931,73.371"
                    id="path80"/>
            <path
                    fill="#6b7280"
                    d="m 415.722,115.954 c -8.831,2.554 -17.685,4.158 -26.022,4.703 l 31.227,31.223 11.095,-41.367 c -4.911,1.904 -10.333,3.709 -16.3,5.441"
                    id="path82"/>
            <path
                    fill="#6b7280"
                    d="m 443.51,64.399 c -11.379,7.401 -25.311,13.781 -38.275,17.489 -17.806,5.161 -35.959,6.776 -49.823,4.384 L 334.255,65.087 451.762,33.522 443.51,64.399"
                    id="path84"/>
            <path
                    fill="#6b7280"
                    d="m 460.756,86.589 c -8.896,10.981 -23.162,18.734 -46.193,25.432 -23.495,6.697 -46.936,6.516 -59.736,-0.58 -4.496,-2.516 -7.312,-5.601 -8.392,-9.293 l -6.739,-16.765 c 0.268,0.129 0.535,0.267 0.766,0.5 13.803,7.585 39.672,7.634 65.947,0.128 21.021,-6.073 43.057,-18.351 54.348,-30.131 v 30.709"
                    id="path86"/>
            <path
                    fill="#6b7280"
                    d="M 420.924,37.621 338.842,59.5 c 8.453,-12.008 28.283,-23.847 51.221,-30.49 6.447,-1.871 20.849,-4.191 30.861,-3.807 v 12.418"
                    id="path88"/>
        </g>
        <path
                fill="#6b7280"
                d="M 509.58992,127.22494 V 67.655476 H 485.96539 V 50.431894 h 68.89572 v 17.223582 h -23.51465 v 59.569464 z m 91.09179,1.53586 q -12.19685,0 -21.91637,-5.15611 -9.72951,-5.1561 -15.28353,-14.26156 -5.54402,-9.10546 -5.54402,-20.514715 v 0 q 0,-11.409252 5.54402,-20.514713 5.55402,-9.10546 15.28353,-14.261565 9.71952,-5.156104 21.91637,-5.156104 v 0 q 12.19685,0 21.92636,5.156104 9.71952,5.156105 15.26354,14.261565 5.55402,9.105461 5.55402,20.514713 v 0 q 0,11.409255 -5.55402,20.514715 -5.54402,9.10546 -15.26354,14.26156 -9.72951,5.15611 -21.92636,5.15611 z m 0,-17.99152 q 5.82372,0 10.54863,-2.74261 4.7249,-2.7426 7.47194,-7.72916 2.74704,-4.996539 2.74704,-11.469095 v 0 q 0,-6.472557 -2.74704,-11.469091 -2.74704,-4.986561 -7.47194,-7.72917 -4.72491,-2.742608 -10.54863,-2.742608 v 0 q -5.82372,0 -10.54863,2.742608 -4.7249,2.742609 -7.47194,7.72917 -2.74704,4.996534 -2.74704,11.469091 v 0 q 0,6.472556 2.74704,11.469095 2.74704,4.98656 7.47194,7.72916 4.72491,2.74261 10.54863,2.74261 z m 92.95978,17.99152 q -12.19685,0 -21.92636,-5.15611 -9.71953,-5.1561 -15.27354,-14.26156 -5.54402,-9.10546 -5.54402,-20.514715 v 0 q 0,-11.409252 5.54402,-20.514713 5.55401,-9.10546 15.27354,-14.261565 9.72951,-5.156104 21.92636,-5.156104 v 0 q 12.19685,0 21.91637,5.156104 9.72951,5.156105 15.27353,14.261565 5.55401,9.105461 5.55401,20.514713 v 0 q 0,11.409255 -5.55401,20.514715 -5.54402,9.10546 -15.27353,14.26156 -9.71952,5.15611 -21.91637,5.15611 z m 0,-17.99152 q 5.82372,0 10.54862,-2.74261 4.72491,-2.7426 7.47195,-7.72916 2.74704,-4.996539 2.74704,-11.469095 v 0 q 0,-6.472557 -2.74704,-11.469091 -2.74704,-4.986561 -7.47195,-7.72917 -4.7249,-2.742608 -10.54862,-2.742608 v 0 q -5.82372,0 -10.54863,2.742608 -4.72491,2.742609 -7.47194,7.72917 -2.74704,4.996534 -2.74704,11.469091 v 0 q 0,6.472556 2.74704,11.469095 2.74703,4.98656 7.47194,7.72916 4.72491,2.74261 10.54863,2.74261 z m 54.17159,16.45566 V 50.431894 h 21.75655 v 59.569456 h 36.70043 v 17.22359 z m 93.83883,1.53586 q -9.33993,0 -18.13045,-2.3038 -8.79052,-2.30379 -14.2846,-6.14344 v 0 l 7.1423,-16.01683 q 5.16443,3.40083 11.97709,5.48521 6.81265,2.08439 13.40555,2.08439 v 0 q 12.52649,0 12.52649,-6.25315 v 0 q 0,-3.29113 -3.57614,-4.87686 -3.56616,-1.595697 -11.47763,-3.350967 v 0 q -8.68064,-1.864973 -14.50436,-4.009195 -5.82372,-2.134248 -9.99922,-6.851535 -4.1755,-4.717286 -4.1755,-12.725704 v 0 q 0,-7.021078 3.84585,-12.675838 3.84586,-5.644787 11.47763,-8.935917 7.64176,-3.291131 18.7398,-3.291131 v 0 q 7.58182,0 14.94388,1.705404 7.36207,1.695431 12.96603,4.986561 v 0 l -6.70278,16.126539 Q 854.8377,65.790502 844.50883,65.790502 v 0 q -6.48301,0 -9.44981,1.924813 -2.9668,1.914839 -2.9668,4.986561 v 0 q 0,3.071722 3.51621,4.607582 3.51621,1.535861 11.3178,3.181426 v 0 q 8.79052,1.864974 14.55431,4.009196 5.77377,2.134248 9.99922,6.791696 4.23543,4.667421 4.23543,12.675834 v 0 q 0,6.91138 -3.84585,12.5063 -3.84586,5.59492 -11.53756,8.94589 -7.69171,3.341 -18.67987,3.341 z"
                id="path92"
                style="stroke-width:0.998117"/>
    </g>
</svg>
