<svg
        xmlns="http://www.w3.org/2000/svg"
        version="1.0"
        width="500"
        height="500"
>

    <path
            d="M 321.69737,357.21491 C 287.28947,367.10965 252.80263,373.24123 220.24561,375.68421 L 342.04386,497.30702 L 385.28509,335.97368 C 366.14474,343.46491 345.02631,350.50439 321.69737,357.21491 z M 430.11403,155.98684 C 385.74123,184.9693 331.41228,209.90351 280.88158,224.43421 C 211.38596,244.41667 140.64474,250.60526 86.609649,241.46491 L 4.0745614,159.05263 L 462.29824,35.894737 L 430.11403,155.98684 z"
            color="currentColor"/>
    <path
            d="M 6.6710526,190.96053 C 6.0394737,188.60965 5.6622807,186.18421 5.4342105,183.72807 L 54.574561,232.79825 C 28.008772,223.31579 11.5,208.97807 6.6710526,190.96053 z M 497.38596,242.87719 C 462.67105,285.34649 407.07017,315.84649 317.23246,341.68421 C 225.59649,368.0307 134.16667,367.2193 84.307017,339.60965 C 66.763158,329.89035 55.763158,317.63596 51.614035,303.18421 L 25.328947,237.97807 C 26.320175,238.57456 27.307017,239.1886 28.289474,239.73246 C 82.078947,269.52193 183.01754,269.74123 285.43421,240.28947 C 367.38158,216.72368 453.30702,169.02632 497.38158,123.0307 L 497.38158,242.87719 L 497.38596,242.87719 z M 342.04386,51.662281 L 21.991228,137.16667 C 54.93421,90.149123 132.27193,43.894737 221.70614,18.179825 C 246.83333,10.95614 302.99561,1.881579 342.04386,3.3333334 L 342.04386,51.662281 z"
            color="currentColor"
    />
</svg>
