<?xml version="1.0" encoding="UTF-8"?>
<svg xmlns="http://www.w3.org/2000/svg" width="20px" height="20px" viewBox="0 0 20 20" version="1.1">
    <g id="surface1">
        <path  color="currentColor" d="M 4.617188 6.925781 C 2.8125 8.617188 2.75 11.273438 4.628906 12.707031 C 6.472656 11.140625 6.488281 8.378906 4.617188 6.925781 Z M 0.105469 12.277344 C 0.0742188 12.570312 0.0507812 12.863281 0.03125 13.15625 C 0.851562 13.066406 1.894531 13.113281 2.582031 13.460938 C 2.101562 12.675781 1.128906 12.210938 0.105469 12.28125 Z M 4.59375 17.925781 C 5.222656 17.355469 5.222656 16.746094 4.59375 16.175781 C 3.964844 16.746094 3.964844 17.359375 4.59375 17.925781 Z M 16.835938 7.839844 C 16.839844 7.679688 16.769531 7.523438 16.640625 7.40625 C 16.511719 7.292969 16.332031 7.230469 16.144531 7.234375 C 15.726562 7.234375 14.902344 8 14.226562 8.597656 C 14.851562 9.132812 15.628906 9.957031 16.144531 9.960938 C 16.332031 9.964844 16.507812 9.898438 16.640625 9.785156 C 16.769531 9.671875 16.839844 9.515625 16.835938 9.355469 C 16.832031 9.214844 16.78125 9.078125 16.753906 8.949219 C 16.707031 8.71875 16.707031 8.476562 16.753906 8.246094 C 16.789062 8.101562 16.828125 7.976562 16.835938 7.84375 Z M 7.238281 16.5625 C 7.226562 15.96875 6.953125 15.71875 6.277344 15.707031 C 6.289062 16.296875 6.558594 16.550781 7.238281 16.5625 Z M 2 16.515625 C 2.679688 16.5 2.96875 16.265625 2.984375 15.675781 C 2.304688 15.6875 2.015625 15.925781 2 16.511719 Z M 11.816406 4.511719 C 11.59375 4.507812 11.375 4.578125 11.214844 4.71875 C 11.054688 4.855469 10.96875 5.042969 10.972656 5.238281 C 10.972656 5.996094 12.042969 6.601562 12.878906 7.316406 C 13.703125 6.605469 14.628906 6.066406 14.753906 5.324219 C 14.390625 5.050781 14.027344 4.792969 13.660156 4.542969 C 13.242188 4.636719 12.804688 4.65625 12.378906 4.601562 C 12.179688 4.566406 12.011719 4.523438 11.816406 4.511719 Z M 9.628906 7.160156 C 9.433594 7.15625 9.246094 7.222656 9.105469 7.34375 C 8.96875 7.464844 8.894531 7.628906 8.902344 7.796875 C 8.90625 7.945312 8.964844 8.09375 8.988281 8.226562 C 9.039062 8.46875 9.042969 8.722656 8.988281 8.96875 C 8.957031 9.121094 8.910156 9.25 8.902344 9.394531 C 8.894531 9.5625 8.96875 9.730469 9.105469 9.851562 C 9.246094 9.972656 9.433594 10.039062 9.628906 10.03125 C 10.03125 10.03125 10.921875 9.234375 11.640625 8.609375 C 10.921875 7.960938 10.164062 7.171875 9.628906 7.160156 Z M 10.199219 13.511719 C 10.367188 12.816406 9.582031 12.289062 8.808594 12.320312 C 7.867188 12.355469 7.015625 12.808594 6.554688 13.519531 C 7.726562 13.066406 9.109375 12.914062 10.199219 13.511719 Z M 10.199219 13.511719 "/>
        <path  color="currentColor" d="M 17.792969 7.730469 C 17.621094 8.179688 17.589844 8.667969 17.707031 9.132812 C 17.75 9.351562 17.816406 9.535156 17.832031 9.738281 C 17.851562 10.027344 17.738281 10.308594 17.515625 10.523438 C 17.292969 10.738281 16.976562 10.867188 16.644531 10.878906 C 16.414062 10.886719 16.085938 10.898438 15.292969 10.355469 C 15.085938 10.210938 13.296875 8.597656 13.296875 8.597656 C 13.296875 8.597656 15.089844 6.988281 15.292969 6.839844 C 15.566406 6.640625 15.875 6.476562 16.207031 6.363281 C 15.960938 6.164062 15.710938 5.96875 15.453125 5.773438 C 15.367188 5.886719 15.269531 6.011719 15.136719 6.15625 C 14.953125 6.359375 12.871094 8.105469 12.867188 8.105469 C 12.867188 8.105469 10.785156 6.363281 10.597656 6.15625 C 9.902344 5.386719 9.925781 5.070312 9.925781 4.839844 C 9.964844 4.167969 10.625 3.652344 11.398438 3.683594 C 11.664062 3.695312 11.945312 3.761719 12.179688 3.800781 C 12.351562 3.832031 12.53125 3.84375 12.707031 3.847656 C 10.242188 2.25 7.515625 0.992188 4.617188 0.109375 C 2.199219 4.101562 0.707031 7.644531 0.183594 11.699219 C 1.878906 11.742188 3.050781 12.589844 3.363281 14.097656 C 2.304688 13.753906 0.964844 13.613281 0.0117188 13.972656 C -0.0234375 15.101562 0.03125 16.230469 0.164062 17.351562 C 1.476562 17.855469 2.820312 18.289062 4.191406 18.648438 C 3.839844 18.28125 3.648438 17.816406 3.652344 17.335938 C 3.640625 16.691406 3.992188 16.082031 4.59375 15.703125 C 5.191406 16.082031 5.542969 16.691406 5.53125 17.335938 C 5.539062 17.890625 5.28125 18.425781 4.816406 18.808594 C 8.609375 19.714844 12.550781 20.054688 16.472656 19.824219 C 18.289062 16.414062 19.425781 13.339844 20 9.957031 C 19.332031 9.210938 18.59375 8.460938 17.792969 7.730469 Z M 4.617188 5.324219 C 7.664062 7.328125 7.585938 11.429688 4.617188 13.484375 C 1.609375 11.523438 1.4375 7.402344 4.617188 5.324219 Z M 1.300781 17.152344 C 1.222656 16.675781 1.40625 16.191406 1.796875 15.851562 C 2.191406 15.511719 2.742188 15.351562 3.292969 15.417969 C 3.363281 16.644531 2.402344 17.285156 1.300781 17.152344 Z M 3.207031 14.683594 C 4.089844 14.164062 5.246094 14.140625 6.019531 14.683594 C 5.140625 15.203125 3.984375 15.222656 3.207031 14.683594 Z M 7.878906 17.152344 C 7.332031 17.21875 6.777344 17.058594 6.386719 16.71875 C 5.996094 16.375 5.8125 15.894531 5.894531 15.417969 C 7.054688 15.273438 8.046875 16.140625 7.878906 17.152344 Z M 10.707031 14.738281 C 9.433594 13.621094 7.265625 13.667969 5.863281 14.097656 C 6.277344 12.714844 7.296875 11.707031 8.695312 11.691406 C 10.78125 11.671875 11.800781 13.015625 10.707031 14.738281 Z M 12.441406 8.597656 C 12.441406 8.597656 10.652344 10.210938 10.445312 10.351562 C 9.648438 10.898438 9.324219 10.878906 9.09375 10.878906 C 8.40625 10.847656 7.875 10.339844 7.90625 9.738281 C 7.917969 9.53125 7.988281 9.328125 8.03125 9.132812 C 8.109375 8.765625 8.097656 8.410156 8.03125 8.0625 C 7.988281 7.84375 7.925781 7.65625 7.90625 7.457031 C 7.886719 7.167969 8.003906 6.882812 8.226562 6.667969 C 8.449219 6.453125 8.761719 6.328125 9.09375 6.3125 C 9.324219 6.3125 9.652344 6.296875 10.445312 6.839844 C 10.652344 6.984375 12.441406 8.597656 12.441406 8.597656 Z M 12.894531 12.492188 C 12.214844 11.300781 12.214844 9.902344 12.894531 8.710938 C 13.523438 9.9375 13.554688 11.359375 12.894531 12.492188 Z M 12.894531 12.492188 "/>
    </g>
</svg>
